<svg id="Layer_1" data-name="Layer 1" xmlns="http://www.w3.org/2000/svg" viewBox="0 0 353.44 341.05"><defs><style>.cls-1{fill:#eb5051;}.cls-2{fill:#ef364d;}</style></defs><path class="cls-1" d="M96.05,62.54c-32.64,0-57.54,14.69-57.54,35.5,0,29.79,56.73,24.08,56.73,56.32,0,60.39-66.33,98.24-64.07,104.06C34,265.76,158.9,210.26,158.9,137.22,158.9,84.17,126.66,62.54,96.05,62.54Z"/><path class="cls-1" d="M156.46,207c-.87-1.56,36-26.4,42.07-79s19.13-81.33,50-81.33c27.64,0,36.53,17.29,36.53,37.69C285.07,162.51,157.35,208.57,156.46,207Z"/><path class="cls-2" d="M113.89,252.41c0-2.19,101.7-44.29,153.65-44.29s68.89,14.22,68.89,39.37c0,20.23-12,49.21-50.3,49.21s-64.52-29.53-93-33.9S113.89,255.14,113.89,252.41Z"/></svg>